<?xml version="1.0" standalone="no"?><!DOCTYPE svg PUBLIC "-//W3C//DTD SVG 1.1//EN" "http://www.w3.org/Graphics/SVG/1.1/DTD/svg11.dtd"><svg t="1513838984316" class="icon" style="" viewBox="0 0 1024 1024" version="1.1" xmlns="http://www.w3.org/2000/svg" p-id="2942" xmlns:xlink="http://www.w3.org/1999/xlink" width="64" height="64"><defs><style type="text/css"></style></defs><path d="M923.565567 894.292869H103.540168c-20.634969 0-37.299511-21.502733-37.299511-48.055482V172.814927c0-26.625404 16.664541-48.127114 37.299511-48.127113s37.299511 21.50171 37.299511 48.127113V798.110273h782.837428c20.578688 0 37.299511 21.574365 37.299511 48.127114-0.112564 26.552749-16.832364 48.055482-37.411051 48.055482z m-17.335831-560.716538l-200.141296 258.169921c-14.259772 18.327414-37.411051 18.327414-51.670823 0-1.733481-2.236947-2.684132-5.195326-3.970428-7.792477L476.252845 359.190709 296.076252 591.746252c-14.259772 18.327414-37.411051 18.327414-51.670823 0-14.20349-18.399045-14.20349-48.2714 0-66.598814L447.063035 263.657912c1.006933-1.587148 1.397836-3.391237 2.460028-4.834099 14.595416-18.832927 38.305421-18.832927 52.845579 0 0.447185 0.649799 0.615007 1.515516 1.062192 2.164293l177.940668 229.525534L857.130482 263.657912c1.006933-1.587148 1.397836-3.391237 2.460028-4.834099 14.595416-18.832927 38.305421-18.832927 52.845578 0s14.595416 49.426713 0 68.186986c-1.956561 2.596128-4.025687 4.617158-6.206352 6.565532z" fill="#000000" p-id="2943"></path></svg>