<?xml version="1.0" standalone="no"?><!DOCTYPE svg PUBLIC "-//W3C//DTD SVG 1.1//EN" "http://www.w3.org/Graphics/SVG/1.1/DTD/svg11.dtd"><svg t="1513838127636" class="icon" style="" viewBox="0 0 1025 1024" version="1.1" xmlns="http://www.w3.org/2000/svg" p-id="1024" xmlns:xlink="http://www.w3.org/1999/xlink" width="64.0625" height="64"><defs><style type="text/css"></style></defs><path d="M1024.001023 365.714286v-219.428572c0-80.815185-65.470529-146.285714-146.285714-146.285714h-731.428572c-80.815185 0-146.285714 65.470529-146.285714 146.285714v731.428572c0 80.815185 65.470529 146.285714 146.285714 146.285714h731.428572c80.815185 0 146.285714-65.470529 146.285714-146.285714V365.714286z m-929.886114-271.6004c13.81019-13.81019 32.223776-21.482517 51.66034-21.482517h731.94006c40.407592 0 73.142857 32.735265 73.142857 73.142857v146.285714H72.632392v-146.285714c0-18.925075 7.672328-37.85015 21.482517-51.66034z m307.916084 527.856144v-256.255744h219.94006v256.255744h-219.94006z m219.94006 72.631369v256.255744h-219.94006v-256.255744h219.94006z m-293.082917-72.631369H72.632392v-256.255744h256.255744v256.255744z m-234.773227 307.404595c-13.81019-13.81019-21.482517-32.223776-21.482517-51.660339v-183.112887h256.255744v256.255744h-182.601399c-19.436563 0-38.361638-7.672328-52.171828-21.482518z m856.743257-51.660339c0 40.407592-32.735265 73.142857-72.631369 73.142857h-183.624375v-256.255744h256.255744v183.112887z m0-255.744256h-256.255744v-256.255744h256.255744v256.255744z" p-id="1025" fill="#ffffff"></path></svg>